<mxfile host="app.diagrams.net" modified="2023-03-14T13:52:28.686Z" agent="5.0 (Macintosh; Intel Mac OS X 10_15_7) AppleWebKit/537.36 (KHTML, like Gecko) Chrome/110.0.0.0 Safari/537.36" etag="otm3VW184UsZVftZsoIo" version="21.0.4" type="github">
  <diagram name="第 1 页" id="ZQMplL6edbyaBLyty5xe">
    <mxGraphModel dx="1434" dy="795" grid="1" gridSize="10" guides="1" tooltips="1" connect="1" arrows="1" fold="1" page="1" pageScale="1" pageWidth="827" pageHeight="1169" math="0" shadow="0">
      <root>
        <mxCell id="0" />
        <mxCell id="1" parent="0" />
        <mxCell id="aSsZa7ohP-IXkPoleuDR-1" value="&lt;font style=&quot;font-size: 20px;&quot;&gt;redimage&lt;/font&gt;" style="rounded=0;whiteSpace=wrap;html=1;" vertex="1" parent="1">
          <mxGeometry x="110" y="260" width="200" height="140" as="geometry" />
        </mxCell>
        <mxCell id="aSsZa7ohP-IXkPoleuDR-2" value="" style="shape=flexArrow;endArrow=classic;html=1;rounded=0;entryX=0.5;entryY=1;entryDx=0;entryDy=0;" edge="1" parent="1" target="aSsZa7ohP-IXkPoleuDR-1">
          <mxGeometry width="50" height="50" relative="1" as="geometry">
            <mxPoint x="210" y="510" as="sourcePoint" />
            <mxPoint x="410" y="460" as="targetPoint" />
          </mxGeometry>
        </mxCell>
        <mxCell id="aSsZa7ohP-IXkPoleuDR-3" value="&lt;h1&gt;/api/addOriginWm&lt;/h1&gt;&lt;div&gt;{&lt;/div&gt;&lt;div&gt;&quot;note_id&quot;:&quot;xxx&quot;&lt;/div&gt;&lt;div&gt;}&lt;/div&gt;" style="text;html=1;strokeColor=none;fillColor=none;spacing=5;spacingTop=-20;whiteSpace=wrap;overflow=hidden;rounded=0;" vertex="1" parent="1">
          <mxGeometry x="250" y="420" width="190" height="120" as="geometry" />
        </mxCell>
        <mxCell id="aSsZa7ohP-IXkPoleuDR-4" value="&lt;font style=&quot;font-size: 20px;&quot;&gt;NoteCore&lt;/font&gt;" style="rounded=0;whiteSpace=wrap;html=1;" vertex="1" parent="1">
          <mxGeometry x="470" y="260" width="200" height="140" as="geometry" />
        </mxCell>
        <mxCell id="aSsZa7ohP-IXkPoleuDR-5" value="" style="shape=flexArrow;endArrow=classic;html=1;rounded=0;" edge="1" parent="1">
          <mxGeometry width="50" height="50" relative="1" as="geometry">
            <mxPoint x="330" y="280" as="sourcePoint" />
            <mxPoint x="460" y="280" as="targetPoint" />
          </mxGeometry>
        </mxCell>
        <mxCell id="aSsZa7ohP-IXkPoleuDR-6" value="GetNoteDeat" style="text;html=1;align=center;verticalAlign=middle;resizable=0;points=[];autosize=1;strokeColor=none;fillColor=none;" vertex="1" parent="1">
          <mxGeometry x="320" y="240" width="90" height="30" as="geometry" />
        </mxCell>
        <mxCell id="aSsZa7ohP-IXkPoleuDR-7" value="" style="shape=flexArrow;endArrow=classic;html=1;rounded=0;width=10;endSize=7.5;endWidth=26;" edge="1" parent="1">
          <mxGeometry width="50" height="50" relative="1" as="geometry">
            <mxPoint x="330" y="360" as="sourcePoint" />
            <mxPoint x="460" y="360" as="targetPoint" />
          </mxGeometry>
        </mxCell>
        <mxCell id="aSsZa7ohP-IXkPoleuDR-8" value="SaveWaterMark" style="text;html=1;align=center;verticalAlign=middle;resizable=0;points=[];autosize=1;strokeColor=none;fillColor=none;" vertex="1" parent="1">
          <mxGeometry x="310" y="325" width="110" height="30" as="geometry" />
        </mxCell>
        <mxCell id="aSsZa7ohP-IXkPoleuDR-9" value="&lt;font style=&quot;font-size: 23px;&quot;&gt;cos ci&lt;/font&gt;" style="whiteSpace=wrap;html=1;aspect=fixed;" vertex="1" parent="1">
          <mxGeometry x="80" y="20" width="120" height="120" as="geometry" />
        </mxCell>
        <mxCell id="aSsZa7ohP-IXkPoleuDR-10" value="&lt;font style=&quot;font-size: 20px;&quot;&gt;cos wm&lt;/font&gt;" style="whiteSpace=wrap;html=1;aspect=fixed;" vertex="1" parent="1">
          <mxGeometry x="230" y="20" width="120" height="120" as="geometry" />
        </mxCell>
        <mxCell id="aSsZa7ohP-IXkPoleuDR-11" value="" style="shape=flexArrow;endArrow=classic;html=1;rounded=0;width=9;endSize=6.86;" edge="1" parent="1">
          <mxGeometry width="50" height="50" relative="1" as="geometry">
            <mxPoint x="150" y="245" as="sourcePoint" />
            <mxPoint x="150" y="140" as="targetPoint" />
            <Array as="points" />
          </mxGeometry>
        </mxCell>
        <mxCell id="aSsZa7ohP-IXkPoleuDR-12" value="put wm image" style="text;html=1;align=center;verticalAlign=middle;resizable=0;points=[];autosize=1;strokeColor=none;fillColor=none;" vertex="1" parent="1">
          <mxGeometry x="160" y="180" width="100" height="30" as="geometry" />
        </mxCell>
        <mxCell id="aSsZa7ohP-IXkPoleuDR-13" value="" style="shape=flexArrow;endArrow=classic;html=1;rounded=0;width=9;endSize=6.33;" edge="1" parent="1">
          <mxGeometry width="50" height="50" relative="1" as="geometry">
            <mxPoint x="280" y="247.5" as="sourcePoint" />
            <mxPoint x="280" y="142.5" as="targetPoint" />
            <Array as="points" />
          </mxGeometry>
        </mxCell>
        <mxCell id="aSsZa7ohP-IXkPoleuDR-14" value="&lt;font style=&quot;font-size: 23px;&quot;&gt;RNS&lt;/font&gt;" style="rounded=0;whiteSpace=wrap;html=1;" vertex="1" parent="1">
          <mxGeometry x="740" y="260" width="190" height="130" as="geometry" />
        </mxCell>
        <mxCell id="aSsZa7ohP-IXkPoleuDR-17" value="&lt;font style=&quot;font-size: 26px;&quot;&gt;笔记中台&lt;/font&gt;" style="rounded=0;whiteSpace=wrap;html=1;" vertex="1" parent="1">
          <mxGeometry x="470" y="40" width="460" height="140" as="geometry" />
        </mxCell>
        <mxCell id="aSsZa7ohP-IXkPoleuDR-18" value="" style="shape=flexArrow;endArrow=classic;html=1;rounded=0;exitX=0.558;exitY=-0.025;exitDx=0;exitDy=0;exitPerimeter=0;" edge="1" parent="1" source="aSsZa7ohP-IXkPoleuDR-4">
          <mxGeometry width="50" height="50" relative="1" as="geometry">
            <mxPoint x="530" y="230" as="sourcePoint" />
            <mxPoint x="580" y="180" as="targetPoint" />
          </mxGeometry>
        </mxCell>
        <mxCell id="aSsZa7ohP-IXkPoleuDR-19" value="" style="shape=flexArrow;endArrow=classic;html=1;rounded=0;entryX=0.355;entryY=-0.004;entryDx=0;entryDy=0;entryPerimeter=0;exitX=0.734;exitY=0.996;exitDx=0;exitDy=0;exitPerimeter=0;" edge="1" parent="1" source="aSsZa7ohP-IXkPoleuDR-17" target="aSsZa7ohP-IXkPoleuDR-14">
          <mxGeometry width="50" height="50" relative="1" as="geometry">
            <mxPoint x="777" y="230" as="sourcePoint" />
            <mxPoint x="827" y="180" as="targetPoint" />
          </mxGeometry>
        </mxCell>
        <mxCell id="aSsZa7ohP-IXkPoleuDR-20" value="" style="shape=flexArrow;endArrow=classic;html=1;rounded=0;" edge="1" parent="1">
          <mxGeometry width="50" height="50" relative="1" as="geometry">
            <mxPoint x="830" y="400" as="sourcePoint" />
            <mxPoint x="830" y="480" as="targetPoint" />
          </mxGeometry>
        </mxCell>
        <mxCell id="aSsZa7ohP-IXkPoleuDR-21" value="外流消费" style="text;html=1;align=center;verticalAlign=middle;resizable=0;points=[];autosize=1;strokeColor=none;fillColor=none;" vertex="1" parent="1">
          <mxGeometry x="850" y="415" width="70" height="30" as="geometry" />
        </mxCell>
      </root>
    </mxGraphModel>
  </diagram>
</mxfile>
